<svg xmlns="http://www.w3.org/2000/svg" xmlns:xlink="http://www.w3.org/1999/xlink" width="500" zoomAndPan="magnify" viewBox="0 0 375 374.999991" height="500" preserveAspectRatio="xMidYMid meet" version="1.0"><defs><g/><clipPath id="fe33145e41"><path d="M 283 82.015625 L 306.980469 82.015625 L 306.980469 104.589844 L 283 104.589844 Z M 283 82.015625 " clip-rule="nonzero"/></clipPath><clipPath id="fb74bf1d95"><rect x="0" width="308" y="0" height="143"/></clipPath></defs><g transform="matrix(1, 0, 0, 1, 33, 115)"><g clip-path="url(#fb74bf1d95)"><g fill="#282828" fill-opacity="1"><g transform="translate(1.344789, 103.678962)"><g><path d="M 55.34375 -12.890625 L 55.34375 0 L 3.765625 0 L 3.765625 -10.09375 L 33.203125 -44.921875 L 4.515625 -44.921875 L 4.515625 -57.8125 L 54.375 -57.8125 L 54.375 -47.703125 L 24.921875 -12.890625 Z M 55.34375 -12.890625 "/></g></g></g><g fill="#282828" fill-opacity="1"><g transform="translate(51.3075, 103.678962)"><g><path d="M 31.046875 -58.671875 C 40.003906 -58.671875 46.882812 -56.535156 51.6875 -52.265625 C 56.488281 -48.003906 58.890625 -41.578125 58.890625 -32.984375 L 58.890625 0 L 43.203125 0 L 43.203125 -7.203125 C 40.046875 -1.828125 34.171875 0.859375 25.578125 0.859375 C 21.128906 0.859375 17.273438 0.109375 14.015625 -1.390625 C 10.765625 -2.898438 8.273438 -4.976562 6.546875 -7.625 C 4.828125 -10.28125 3.96875 -13.289062 3.96875 -16.65625 C 3.96875 -22.03125 5.992188 -26.253906 10.046875 -29.328125 C 14.097656 -32.410156 20.347656 -33.953125 28.796875 -33.953125 L 42.125 -33.953125 C 42.125 -37.609375 41.007812 -40.421875 38.78125 -42.390625 C 36.5625 -44.359375 33.234375 -45.34375 28.796875 -45.34375 C 25.710938 -45.34375 22.6875 -44.859375 19.71875 -43.890625 C 16.75 -42.921875 14.222656 -41.613281 12.140625 -39.96875 L 6.125 -51.6875 C 9.28125 -53.90625 13.054688 -55.625 17.453125 -56.84375 C 21.859375 -58.0625 26.390625 -58.671875 31.046875 -58.671875 Z M 29.765625 -10.421875 C 32.628906 -10.421875 35.171875 -11.082031 37.390625 -12.40625 C 39.609375 -13.738281 41.1875 -15.691406 42.125 -18.265625 L 42.125 -24.171875 L 30.625 -24.171875 C 23.75 -24.171875 20.3125 -21.914062 20.3125 -17.40625 C 20.3125 -15.257812 21.148438 -13.554688 22.828125 -12.296875 C 24.515625 -11.046875 26.828125 -10.421875 29.765625 -10.421875 Z M 29.765625 -10.421875 "/></g></g></g><g fill="#282828" fill-opacity="1"><g transform="translate(109.22134, 103.678962)"><g><path d="M 45.015625 -2.796875 C 43.367188 -1.578125 41.347656 -0.660156 38.953125 -0.046875 C 36.554688 0.554688 34.03125 0.859375 31.375 0.859375 C 24.5 0.859375 19.179688 -0.894531 15.421875 -4.40625 C 11.660156 -7.914062 9.78125 -13.070312 9.78125 -19.875 L 9.78125 -43.625 L 0.859375 -43.625 L 0.859375 -56.515625 L 9.78125 -56.515625 L 9.78125 -70.59375 L 26.546875 -70.59375 L 26.546875 -56.515625 L 40.9375 -56.515625 L 40.9375 -43.625 L 26.546875 -43.625 L 26.546875 -20.09375 C 26.546875 -17.65625 27.171875 -15.773438 28.421875 -14.453125 C 29.671875 -13.128906 31.441406 -12.46875 33.734375 -12.46875 C 36.390625 -12.46875 38.648438 -13.179688 40.515625 -14.609375 Z M 45.015625 -2.796875 "/></g></g></g><g fill="#282828" fill-opacity="1"><g transform="translate(147.579719, 103.678962)"><g><path d="M 45.015625 -2.796875 C 43.367188 -1.578125 41.347656 -0.660156 38.953125 -0.046875 C 36.554688 0.554688 34.03125 0.859375 31.375 0.859375 C 24.5 0.859375 19.179688 -0.894531 15.421875 -4.40625 C 11.660156 -7.914062 9.78125 -13.070312 9.78125 -19.875 L 9.78125 -43.625 L 0.859375 -43.625 L 0.859375 -56.515625 L 9.78125 -56.515625 L 9.78125 -70.59375 L 26.546875 -70.59375 L 26.546875 -56.515625 L 40.9375 -56.515625 L 40.9375 -43.625 L 26.546875 -43.625 L 26.546875 -20.09375 C 26.546875 -17.65625 27.171875 -15.773438 28.421875 -14.453125 C 29.671875 -13.128906 31.441406 -12.46875 33.734375 -12.46875 C 36.390625 -12.46875 38.648438 -13.179688 40.515625 -14.609375 Z M 45.015625 -2.796875 "/></g></g></g><g fill="#282828" fill-opacity="1"><g transform="translate(185.938099, 103.678962)"><g><path d="M 31.046875 -58.671875 C 40.003906 -58.671875 46.882812 -56.535156 51.6875 -52.265625 C 56.488281 -48.003906 58.890625 -41.578125 58.890625 -32.984375 L 58.890625 0 L 43.203125 0 L 43.203125 -7.203125 C 40.046875 -1.828125 34.171875 0.859375 25.578125 0.859375 C 21.128906 0.859375 17.273438 0.109375 14.015625 -1.390625 C 10.765625 -2.898438 8.273438 -4.976562 6.546875 -7.625 C 4.828125 -10.28125 3.96875 -13.289062 3.96875 -16.65625 C 3.96875 -22.03125 5.992188 -26.253906 10.046875 -29.328125 C 14.097656 -32.410156 20.347656 -33.953125 28.796875 -33.953125 L 42.125 -33.953125 C 42.125 -37.609375 41.007812 -40.421875 38.78125 -42.390625 C 36.5625 -44.359375 33.234375 -45.34375 28.796875 -45.34375 C 25.710938 -45.34375 22.6875 -44.859375 19.71875 -43.890625 C 16.75 -42.921875 14.222656 -41.613281 12.140625 -39.96875 L 6.125 -51.6875 C 9.28125 -53.90625 13.054688 -55.625 17.453125 -56.84375 C 21.859375 -58.0625 26.390625 -58.671875 31.046875 -58.671875 Z M 29.765625 -10.421875 C 32.628906 -10.421875 35.171875 -11.082031 37.390625 -12.40625 C 39.609375 -13.738281 41.1875 -15.691406 42.125 -18.265625 L 42.125 -24.171875 L 30.625 -24.171875 C 23.75 -24.171875 20.3125 -21.914062 20.3125 -17.40625 C 20.3125 -15.257812 21.148438 -13.554688 22.828125 -12.296875 C 24.515625 -11.046875 26.828125 -10.421875 29.765625 -10.421875 Z M 29.765625 -10.421875 "/></g></g></g><g fill="#282828" fill-opacity="1"><g transform="translate(243.85195, 103.678962)"><g><path d="M 23.75 -50.1875 C 25.75 -52.976562 28.453125 -55.085938 31.859375 -56.515625 C 35.265625 -57.953125 39.1875 -58.671875 43.625 -58.671875 L 43.625 -43.203125 C 41.757812 -43.335938 40.503906 -43.40625 39.859375 -43.40625 C 35.066406 -43.40625 31.304688 -42.0625 28.578125 -39.375 C 25.859375 -36.695312 24.5 -32.671875 24.5 -27.296875 L 24.5 0 L 7.734375 0 L 7.734375 -57.8125 L 23.75 -57.8125 Z M 23.75 -50.1875 "/></g></g></g><g clip-path="url(#fe33145e41)"><path fill="#5523eb" d="M 306.542969 88.640625 C 306.128906 87.398438 305.550781 86.320312 304.804688 85.535156 C 304.433594 85.121094 303.976562 84.707031 303.480469 84.375 C 303.066406 84.085938 302.570312 83.839844 302.113281 83.632812 C 301.78125 83.507812 301.453125 83.382812 301.160156 83.257812 C 300.953125 83.175781 300.746094 83.09375 300.539062 83.011719 L 300.292969 82.886719 C 299.917969 82.71875 299.503906 82.554688 299.089844 82.429688 C 298.472656 82.304688 297.851562 82.222656 297.269531 82.140625 C 296.730469 82.058594 296.195312 82.058594 295.574219 82.015625 C 295.449219 82.015625 295.28125 82.015625 295.160156 82.015625 C 294.25 82.015625 293.296875 82.097656 292.179688 82.265625 C 291.226562 82.390625 290.230469 82.636719 289.28125 83.011719 C 288.785156 83.175781 288.285156 83.382812 287.871094 83.632812 C 287.417969 83.878906 286.960938 84.253906 286.546875 84.707031 C 286.132812 85.203125 285.761719 85.578125 285.472656 85.992188 C 285.347656 86.199219 285.183594 86.40625 285.058594 86.613281 C 284.976562 86.734375 284.890625 86.859375 284.808594 86.984375 C 284.601562 87.316406 284.394531 87.605469 284.269531 87.9375 C 284.105469 88.269531 283.941406 88.683594 283.816406 89.136719 C 283.734375 89.46875 283.648438 89.800781 283.609375 90.132812 C 283.566406 90.214844 283.566406 90.335938 283.527344 90.421875 C 283.402344 90.957031 283.320312 91.496094 283.234375 92.242188 C 283.113281 93.277344 283.070312 94.355469 283.152344 95.554688 C 283.195312 96.09375 283.234375 96.753906 283.402344 97.375 C 283.566406 97.957031 283.773438 98.535156 284.0625 99.074219 C 284.3125 99.527344 284.644531 100.023438 285.097656 100.5625 C 285.347656 100.894531 285.679688 101.183594 285.96875 101.472656 L 286.214844 101.722656 C 287.003906 102.507812 287.957031 103.171875 289.113281 103.75 C 289.652344 104 290.230469 104.207031 290.9375 104.414062 C 291.597656 104.578125 292.300781 104.703125 292.839844 104.785156 C 293.335938 104.867188 293.875 104.867188 294.578125 104.910156 C 294.746094 104.910156 294.867188 104.910156 295.035156 104.910156 C 295.160156 104.910156 295.28125 104.910156 295.40625 104.910156 C 295.820312 104.910156 296.195312 104.828125 296.484375 104.785156 C 297.023438 104.703125 297.558594 104.578125 298.140625 104.371094 C 298.71875 104.207031 299.296875 103.917969 299.835938 103.667969 C 300.085938 103.542969 300.375 103.421875 300.664062 103.253906 C 300.871094 103.128906 301.078125 103.007812 301.246094 102.882812 L 301.367188 102.800781 C 301.824219 102.46875 302.28125 102.09375 302.859375 101.558594 C 303.355469 101.101562 303.726562 100.6875 304.058594 100.316406 C 304.515625 99.816406 304.847656 99.195312 305.175781 98.660156 C 305.507812 98.078125 305.757812 97.457031 306.003906 96.878906 C 306.210938 96.382812 306.417969 95.84375 306.542969 95.347656 C 306.710938 94.765625 306.792969 94.148438 306.875 93.566406 C 306.917969 93.070312 306.957031 92.53125 307 91.910156 C 307 91.25 306.917969 90.585938 306.832031 90.046875 C 306.832031 89.632812 306.710938 89.179688 306.542969 88.640625 Z M 306.542969 88.640625 " fill-opacity="1" fill-rule="nonzero"/></g><g fill="#282828" fill-opacity="1"><g transform="translate(123.848505, 136.189862)"><g><path d="M 13.078125 -4.421875 L 3.859375 -4.421875 L 1.875 0 L 0.046875 0 L 7.625 -16.5625 L 9.34375 -16.5625 L 16.921875 0 L 15.0625 0 Z M 12.4375 -5.84375 L 8.46875 -14.734375 L 4.5 -5.84375 Z M 12.4375 -5.84375 "/></g></g></g><g fill="#282828" fill-opacity="1"><g transform="translate(143.167448, 136.189862)"><g><path d="M 2.703125 -16.5625 L 9.4375 -16.5625 C 11.1875 -16.5625 12.734375 -16.207031 14.078125 -15.5 C 15.421875 -14.800781 16.460938 -13.820312 17.203125 -12.5625 C 17.941406 -11.3125 18.3125 -9.882812 18.3125 -8.28125 C 18.3125 -6.664062 17.941406 -5.234375 17.203125 -3.984375 C 16.460938 -2.734375 15.421875 -1.753906 14.078125 -1.046875 C 12.734375 -0.347656 11.1875 0 9.4375 0 L 2.703125 0 Z M 9.34375 -1.515625 C 10.789062 -1.515625 12.054688 -1.800781 13.140625 -2.375 C 14.234375 -2.945312 15.078125 -3.742188 15.671875 -4.765625 C 16.273438 -5.785156 16.578125 -6.957031 16.578125 -8.28125 C 16.578125 -9.601562 16.273438 -10.769531 15.671875 -11.78125 C 15.078125 -12.800781 14.234375 -13.597656 13.140625 -14.171875 C 12.054688 -14.753906 10.789062 -15.046875 9.34375 -15.046875 L 4.453125 -15.046875 L 4.453125 -1.515625 Z M 9.34375 -1.515625 "/></g></g></g><g fill="#282828" fill-opacity="1"><g transform="translate(164.566955, 136.189862)"><g><path d="M 16.46875 -16.5625 L 9.125 0 L 7.40625 0 L 0.078125 -16.5625 L 1.96875 -16.5625 L 8.296875 -2.171875 L 14.6875 -16.5625 Z M 16.46875 -16.5625 "/></g></g></g><g fill="#282828" fill-opacity="1"><g transform="translate(182.939946, 136.189862)"><g><path d="M 9.9375 0.140625 C 8.289062 0.140625 6.800781 -0.222656 5.46875 -0.953125 C 4.144531 -1.691406 3.109375 -2.695312 2.359375 -3.96875 C 1.609375 -5.25 1.234375 -6.6875 1.234375 -8.28125 C 1.234375 -9.875 1.609375 -11.304688 2.359375 -12.578125 C 3.109375 -13.859375 4.144531 -14.863281 5.46875 -15.59375 C 6.800781 -16.332031 8.289062 -16.703125 9.9375 -16.703125 C 11.570312 -16.703125 13.046875 -16.335938 14.359375 -15.609375 C 15.679688 -14.890625 16.722656 -13.882812 17.484375 -12.59375 C 18.242188 -11.3125 18.625 -9.875 18.625 -8.28125 C 18.625 -6.6875 18.242188 -5.242188 17.484375 -3.953125 C 16.722656 -2.671875 15.679688 -1.664062 14.359375 -0.9375 C 13.046875 -0.21875 11.570312 0.140625 9.9375 0.140625 Z M 9.9375 -1.421875 C 11.25 -1.421875 12.429688 -1.710938 13.484375 -2.296875 C 14.535156 -2.890625 15.359375 -3.710938 15.953125 -4.765625 C 16.554688 -5.816406 16.859375 -6.988281 16.859375 -8.28125 C 16.859375 -9.570312 16.554688 -10.738281 15.953125 -11.78125 C 15.359375 -12.832031 14.535156 -13.65625 13.484375 -14.25 C 12.429688 -14.84375 11.25 -15.140625 9.9375 -15.140625 C 8.625 -15.140625 7.4375 -14.84375 6.375 -14.25 C 5.3125 -13.65625 4.472656 -12.832031 3.859375 -11.78125 C 3.253906 -10.738281 2.953125 -9.570312 2.953125 -8.28125 C 2.953125 -6.988281 3.253906 -5.816406 3.859375 -4.765625 C 4.472656 -3.710938 5.3125 -2.890625 6.375 -2.296875 C 7.4375 -1.710938 8.625 -1.421875 9.9375 -1.421875 Z M 9.9375 -1.421875 "/></g></g></g><g fill="#282828" fill-opacity="1"><g transform="translate(205.143541, 136.189862)"><g><path d="M 14.359375 -8.28125 L 16.03125 -8.28125 L 16.03125 -1.96875 C 15.257812 -1.289062 14.34375 -0.769531 13.28125 -0.40625 C 12.226562 -0.0390625 11.117188 0.140625 9.953125 0.140625 C 8.296875 0.140625 6.804688 -0.21875 5.484375 -0.9375 C 4.160156 -1.664062 3.117188 -2.671875 2.359375 -3.953125 C 1.609375 -5.242188 1.234375 -6.6875 1.234375 -8.28125 C 1.234375 -9.875 1.609375 -11.3125 2.359375 -12.59375 C 3.117188 -13.882812 4.160156 -14.890625 5.484375 -15.609375 C 6.804688 -16.335938 8.304688 -16.703125 9.984375 -16.703125 C 11.242188 -16.703125 12.398438 -16.5 13.453125 -16.09375 C 14.515625 -15.695312 15.410156 -15.101562 16.140625 -14.3125 L 15.046875 -13.203125 C 13.734375 -14.492188 12.066406 -15.140625 10.046875 -15.140625 C 8.710938 -15.140625 7.503906 -14.84375 6.421875 -14.25 C 5.335938 -13.65625 4.488281 -12.832031 3.875 -11.78125 C 3.257812 -10.738281 2.953125 -9.570312 2.953125 -8.28125 C 2.953125 -6.988281 3.257812 -5.820312 3.875 -4.78125 C 4.488281 -3.738281 5.332031 -2.914062 6.40625 -2.3125 C 7.476562 -1.71875 8.6875 -1.421875 10.03125 -1.421875 C 11.726562 -1.421875 13.171875 -1.847656 14.359375 -2.703125 Z M 14.359375 -8.28125 "/></g></g></g><g fill="#282828" fill-opacity="1"><g transform="translate(225.786586, 136.189862)"><g><path d="M 13.078125 -4.421875 L 3.859375 -4.421875 L 1.875 0 L 0.046875 0 L 7.625 -16.5625 L 9.34375 -16.5625 L 16.921875 0 L 15.0625 0 Z M 12.4375 -5.84375 L 8.46875 -14.734375 L 4.5 -5.84375 Z M 12.4375 -5.84375 "/></g></g></g><g fill="#282828" fill-opacity="1"><g transform="translate(245.105529, 136.189862)"><g><path d="M 2.703125 -16.5625 L 9.4375 -16.5625 C 11.1875 -16.5625 12.734375 -16.207031 14.078125 -15.5 C 15.421875 -14.800781 16.460938 -13.820312 17.203125 -12.5625 C 17.941406 -11.3125 18.3125 -9.882812 18.3125 -8.28125 C 18.3125 -6.664062 17.941406 -5.234375 17.203125 -3.984375 C 16.460938 -2.734375 15.421875 -1.753906 14.078125 -1.046875 C 12.734375 -0.347656 11.1875 0 9.4375 0 L 2.703125 0 Z M 9.34375 -1.515625 C 10.789062 -1.515625 12.054688 -1.800781 13.140625 -2.375 C 14.234375 -2.945312 15.078125 -3.742188 15.671875 -4.765625 C 16.273438 -5.785156 16.578125 -6.957031 16.578125 -8.28125 C 16.578125 -9.601562 16.273438 -10.769531 15.671875 -11.78125 C 15.078125 -12.800781 14.234375 -13.597656 13.140625 -14.171875 C 12.054688 -14.753906 10.789062 -15.046875 9.34375 -15.046875 L 4.453125 -15.046875 L 4.453125 -1.515625 Z M 9.34375 -1.515625 "/></g></g></g><g fill="#282828" fill-opacity="1"><g transform="translate(267.001748, 136.189862)"><g><path d="M 9.9375 0.140625 C 8.289062 0.140625 6.800781 -0.222656 5.46875 -0.953125 C 4.144531 -1.691406 3.109375 -2.695312 2.359375 -3.96875 C 1.609375 -5.25 1.234375 -6.6875 1.234375 -8.28125 C 1.234375 -9.875 1.609375 -11.304688 2.359375 -12.578125 C 3.109375 -13.859375 4.144531 -14.863281 5.46875 -15.59375 C 6.800781 -16.332031 8.289062 -16.703125 9.9375 -16.703125 C 11.570312 -16.703125 13.046875 -16.335938 14.359375 -15.609375 C 15.679688 -14.890625 16.722656 -13.882812 17.484375 -12.59375 C 18.242188 -11.3125 18.625 -9.875 18.625 -8.28125 C 18.625 -6.6875 18.242188 -5.242188 17.484375 -3.953125 C 16.722656 -2.671875 15.679688 -1.664062 14.359375 -0.9375 C 13.046875 -0.21875 11.570312 0.140625 9.9375 0.140625 Z M 9.9375 -1.421875 C 11.25 -1.421875 12.429688 -1.710938 13.484375 -2.296875 C 14.535156 -2.890625 15.359375 -3.710938 15.953125 -4.765625 C 16.554688 -5.816406 16.859375 -6.988281 16.859375 -8.28125 C 16.859375 -9.570312 16.554688 -10.738281 15.953125 -11.78125 C 15.359375 -12.832031 14.535156 -13.65625 13.484375 -14.25 C 12.429688 -14.84375 11.25 -15.140625 9.9375 -15.140625 C 8.625 -15.140625 7.4375 -14.84375 6.375 -14.25 C 5.3125 -13.65625 4.472656 -12.832031 3.859375 -11.78125 C 3.253906 -10.738281 2.953125 -9.570312 2.953125 -8.28125 C 2.953125 -6.988281 3.253906 -5.816406 3.859375 -4.765625 C 4.472656 -3.710938 5.3125 -2.890625 6.375 -2.296875 C 7.4375 -1.710938 8.625 -1.421875 9.9375 -1.421875 Z M 9.9375 -1.421875 "/></g></g></g><g fill="#282828" fill-opacity="1"><g transform="translate(289.205343, 136.189862)"><g><path d="M 7.265625 0.140625 C 6.035156 0.140625 4.851562 -0.0546875 3.71875 -0.453125 C 2.59375 -0.847656 1.722656 -1.367188 1.109375 -2.015625 L 1.796875 -3.359375 C 2.398438 -2.753906 3.195312 -2.265625 4.1875 -1.890625 C 5.175781 -1.523438 6.203125 -1.34375 7.265625 -1.34375 C 8.742188 -1.34375 9.851562 -1.613281 10.59375 -2.15625 C 11.332031 -2.707031 11.703125 -3.414062 11.703125 -4.28125 C 11.703125 -4.945312 11.5 -5.472656 11.09375 -5.859375 C 10.695312 -6.253906 10.207031 -6.554688 9.625 -6.765625 C 9.039062 -6.984375 8.226562 -7.21875 7.1875 -7.46875 C 5.945312 -7.789062 4.953125 -8.097656 4.203125 -8.390625 C 3.460938 -8.679688 2.828125 -9.125 2.296875 -9.71875 C 1.773438 -10.320312 1.515625 -11.132812 1.515625 -12.15625 C 1.515625 -12.988281 1.734375 -13.75 2.171875 -14.4375 C 2.617188 -15.125 3.296875 -15.671875 4.203125 -16.078125 C 5.117188 -16.492188 6.257812 -16.703125 7.625 -16.703125 C 8.5625 -16.703125 9.484375 -16.570312 10.390625 -16.3125 C 11.296875 -16.050781 12.082031 -15.691406 12.75 -15.234375 L 12.15625 -13.84375 C 11.46875 -14.300781 10.726562 -14.644531 9.9375 -14.875 C 9.144531 -15.101562 8.375 -15.21875 7.625 -15.21875 C 6.164062 -15.21875 5.066406 -14.9375 4.328125 -14.375 C 3.597656 -13.8125 3.234375 -13.085938 3.234375 -12.203125 C 3.234375 -11.546875 3.4375 -11.015625 3.84375 -10.609375 C 4.25 -10.203125 4.753906 -9.894531 5.359375 -9.6875 C 5.960938 -9.476562 6.78125 -9.242188 7.8125 -8.984375 C 9.019531 -8.691406 10 -8.398438 10.75 -8.109375 C 11.5 -7.816406 12.132812 -7.375 12.65625 -6.78125 C 13.175781 -6.1875 13.4375 -5.382812 13.4375 -4.375 C 13.4375 -3.539062 13.210938 -2.78125 12.765625 -2.09375 C 12.316406 -1.40625 11.625 -0.859375 10.6875 -0.453125 C 9.757812 -0.0546875 8.617188 0.140625 7.265625 0.140625 Z M 7.265625 0.140625 "/></g></g></g></g></g></svg>