<svg xmlns="http://www.w3.org/2000/svg" xmlns:xlink="http://www.w3.org/1999/xlink" width="500" zoomAndPan="magnify" viewBox="0 0 375 374.999991" height="500" preserveAspectRatio="xMidYMid meet" version="1.0"><defs><g/><clipPath id="11f3025599"><path d="M 290 84.261719 L 314.542969 84.261719 L 314.542969 107.414062 L 290 107.414062 Z M 290 84.261719 " clip-rule="nonzero"/></clipPath><clipPath id="0f0f575cb2"><rect x="0" width="315" y="0" height="147"/></clipPath></defs><g transform="matrix(1, 0, 0, 1, 28, 113)"><g clip-path="url(#0f0f575cb2)"><g fill="#ffffff" fill-opacity="1"><g transform="translate(1.074344, 106.477807)"><g><path d="M 56.75 -13.21875 L 56.75 0 L 3.859375 0 L 3.859375 -10.359375 L 34.046875 -46.0625 L 4.625 -46.0625 L 4.625 -59.296875 L 55.765625 -59.296875 L 55.765625 -48.9375 L 25.5625 -13.21875 Z M 56.75 -13.21875 "/></g></g></g><g fill="#ffffff" fill-opacity="1"><g transform="translate(52.317135, 106.477807)"><g><path d="M 31.84375 -60.171875 C 41.03125 -60.171875 48.082031 -57.984375 53 -53.609375 C 57.925781 -49.242188 60.390625 -42.648438 60.390625 -33.828125 L 60.390625 0 L 44.296875 0 L 44.296875 -7.390625 C 41.066406 -1.878906 35.046875 0.875 26.234375 0.875 C 21.671875 0.875 17.71875 0.101562 14.375 -1.4375 C 11.039062 -2.976562 8.488281 -5.109375 6.71875 -7.828125 C 4.957031 -10.546875 4.078125 -13.628906 4.078125 -17.078125 C 4.078125 -22.585938 6.148438 -26.921875 10.296875 -30.078125 C 14.453125 -33.242188 20.863281 -34.828125 29.53125 -34.828125 L 43.203125 -34.828125 C 43.203125 -38.566406 42.0625 -41.445312 39.78125 -43.46875 C 37.5 -45.488281 34.082031 -46.5 29.53125 -46.5 C 26.375 -46.5 23.269531 -46.003906 20.21875 -45.015625 C 17.175781 -44.023438 14.585938 -42.6875 12.453125 -41 L 6.28125 -53 C 9.507812 -55.28125 13.382812 -57.046875 17.90625 -58.296875 C 22.425781 -59.546875 27.070312 -60.171875 31.84375 -60.171875 Z M 30.53125 -10.6875 C 33.46875 -10.6875 36.070312 -11.363281 38.34375 -12.71875 C 40.625 -14.082031 42.242188 -16.085938 43.203125 -18.734375 L 43.203125 -24.796875 L 31.40625 -24.796875 C 24.351562 -24.796875 20.828125 -22.484375 20.828125 -17.859375 C 20.828125 -15.648438 21.691406 -13.898438 23.421875 -12.609375 C 25.148438 -11.328125 27.519531 -10.6875 30.53125 -10.6875 Z M 30.53125 -10.6875 "/></g></g></g><g fill="#ffffff" fill-opacity="1"><g transform="translate(111.714769, 106.477807)"><g><path d="M 46.171875 -2.859375 C 44.484375 -1.609375 42.40625 -0.671875 39.9375 -0.046875 C 37.476562 0.566406 34.890625 0.875 32.171875 0.875 C 25.117188 0.875 19.664062 -0.921875 15.8125 -4.515625 C 11.957031 -8.117188 10.03125 -13.410156 10.03125 -20.390625 L 10.03125 -44.75 L 0.875 -44.75 L 0.875 -57.96875 L 10.03125 -57.96875 L 10.03125 -72.40625 L 27.21875 -72.40625 L 27.21875 -57.96875 L 41.984375 -57.96875 L 41.984375 -44.75 L 27.21875 -44.75 L 27.21875 -20.609375 C 27.21875 -18.109375 27.859375 -16.175781 29.140625 -14.8125 C 30.429688 -13.457031 32.253906 -12.78125 34.609375 -12.78125 C 37.328125 -12.78125 39.640625 -13.515625 41.546875 -14.984375 Z M 46.171875 -2.859375 "/></g></g></g><g fill="#ffffff" fill-opacity="1"><g transform="translate(151.055917, 106.477807)"><g><path d="M 46.171875 -2.859375 C 44.484375 -1.609375 42.40625 -0.671875 39.9375 -0.046875 C 37.476562 0.566406 34.890625 0.875 32.171875 0.875 C 25.117188 0.875 19.664062 -0.921875 15.8125 -4.515625 C 11.957031 -8.117188 10.03125 -13.410156 10.03125 -20.390625 L 10.03125 -44.75 L 0.875 -44.75 L 0.875 -57.96875 L 10.03125 -57.96875 L 10.03125 -72.40625 L 27.21875 -72.40625 L 27.21875 -57.96875 L 41.984375 -57.96875 L 41.984375 -44.75 L 27.21875 -44.75 L 27.21875 -20.609375 C 27.21875 -18.109375 27.859375 -16.175781 29.140625 -14.8125 C 30.429688 -13.457031 32.253906 -12.78125 34.609375 -12.78125 C 37.328125 -12.78125 39.640625 -13.515625 41.546875 -14.984375 Z M 46.171875 -2.859375 "/></g></g></g><g fill="#ffffff" fill-opacity="1"><g transform="translate(190.397066, 106.477807)"><g><path d="M 31.84375 -60.171875 C 41.03125 -60.171875 48.082031 -57.984375 53 -53.609375 C 57.925781 -49.242188 60.390625 -42.648438 60.390625 -33.828125 L 60.390625 0 L 44.296875 0 L 44.296875 -7.390625 C 41.066406 -1.878906 35.046875 0.875 26.234375 0.875 C 21.671875 0.875 17.71875 0.101562 14.375 -1.4375 C 11.039062 -2.976562 8.488281 -5.109375 6.71875 -7.828125 C 4.957031 -10.546875 4.078125 -13.628906 4.078125 -17.078125 C 4.078125 -22.585938 6.148438 -26.921875 10.296875 -30.078125 C 14.453125 -33.242188 20.863281 -34.828125 29.53125 -34.828125 L 43.203125 -34.828125 C 43.203125 -38.566406 42.0625 -41.445312 39.78125 -43.46875 C 37.5 -45.488281 34.082031 -46.5 29.53125 -46.5 C 26.375 -46.5 23.269531 -46.003906 20.21875 -45.015625 C 17.175781 -44.023438 14.585938 -42.6875 12.453125 -41 L 6.28125 -53 C 9.507812 -55.28125 13.382812 -57.046875 17.90625 -58.296875 C 22.425781 -59.546875 27.070312 -60.171875 31.84375 -60.171875 Z M 30.53125 -10.6875 C 33.46875 -10.6875 36.070312 -11.363281 38.34375 -12.71875 C 40.625 -14.082031 42.242188 -16.085938 43.203125 -18.734375 L 43.203125 -24.796875 L 31.40625 -24.796875 C 24.351562 -24.796875 20.828125 -22.484375 20.828125 -17.859375 C 20.828125 -15.648438 21.691406 -13.898438 23.421875 -12.609375 C 25.148438 -11.328125 27.519531 -10.6875 30.53125 -10.6875 Z M 30.53125 -10.6875 "/></g></g></g><g fill="#ffffff" fill-opacity="1"><g transform="translate(249.79471, 106.477807)"><g><path d="M 24.359375 -51.46875 C 26.410156 -54.332031 29.179688 -56.5 32.671875 -57.96875 C 36.160156 -59.4375 40.1875 -60.171875 44.75 -60.171875 L 44.75 -44.296875 C 42.832031 -44.441406 41.546875 -44.515625 40.890625 -44.515625 C 35.960938 -44.515625 32.101562 -43.132812 29.3125 -40.375 C 26.519531 -37.625 25.125 -33.492188 25.125 -27.984375 L 25.125 0 L 7.9375 0 L 7.9375 -59.296875 L 24.359375 -59.296875 Z M 24.359375 -51.46875 "/></g></g></g><g clip-path="url(#11f3025599)"><path fill="#5523eb" d="M 314.09375 91.054688 C 313.667969 89.78125 313.074219 88.675781 312.308594 87.871094 C 311.925781 87.445312 311.460938 87.019531 310.949219 86.679688 C 310.527344 86.382812 310.015625 86.128906 309.550781 85.917969 C 309.210938 85.789062 308.871094 85.660156 308.574219 85.535156 C 308.359375 85.449219 308.148438 85.363281 307.9375 85.28125 L 307.679688 85.152344 C 307.300781 84.980469 306.875 84.8125 306.449219 84.683594 C 305.8125 84.558594 305.175781 84.472656 304.582031 84.386719 C 304.03125 84.304688 303.476562 84.304688 302.839844 84.261719 C 302.714844 84.261719 302.542969 84.261719 302.417969 84.261719 C 301.480469 84.261719 300.503906 84.34375 299.359375 84.515625 C 298.382812 84.644531 297.363281 84.898438 296.386719 85.28125 C 295.878906 85.449219 295.367188 85.660156 294.941406 85.917969 C 294.476562 86.171875 294.007812 86.554688 293.585938 87.019531 C 293.160156 87.53125 292.777344 87.910156 292.480469 88.335938 C 292.351562 88.550781 292.183594 88.761719 292.054688 88.972656 C 291.972656 89.101562 291.886719 89.226562 291.800781 89.355469 C 291.589844 89.695312 291.375 89.992188 291.25 90.332031 C 291.078125 90.671875 290.910156 91.097656 290.78125 91.5625 C 290.699219 91.902344 290.613281 92.242188 290.570312 92.582031 C 290.527344 92.667969 290.527344 92.792969 290.484375 92.878906 C 290.359375 93.433594 290.273438 93.984375 290.1875 94.746094 C 290.058594 95.808594 290.019531 96.914062 290.101562 98.144531 C 290.144531 98.695312 290.1875 99.375 290.359375 100.011719 C 290.527344 100.609375 290.738281 101.203125 291.035156 101.753906 C 291.292969 102.222656 291.632812 102.730469 292.097656 103.28125 C 292.351562 103.621094 292.691406 103.917969 292.988281 104.214844 L 293.246094 104.472656 C 294.050781 105.277344 295.027344 105.957031 296.21875 106.550781 C 296.769531 106.804688 297.363281 107.019531 298.085938 107.230469 C 298.765625 107.402344 299.488281 107.527344 300.039062 107.613281 C 300.546875 107.699219 301.101562 107.699219 301.820312 107.742188 C 301.992188 107.742188 302.117188 107.742188 302.289062 107.742188 C 302.417969 107.742188 302.542969 107.742188 302.671875 107.742188 C 303.09375 107.742188 303.476562 107.65625 303.773438 107.613281 C 304.328125 107.527344 304.878906 107.402344 305.472656 107.1875 C 306.066406 107.019531 306.664062 106.722656 307.214844 106.46875 C 307.46875 106.339844 307.765625 106.210938 308.0625 106.042969 C 308.277344 105.914062 308.488281 105.789062 308.65625 105.660156 L 308.785156 105.574219 C 309.253906 105.234375 309.71875 104.851562 310.3125 104.300781 C 310.824219 103.835938 311.207031 103.410156 311.546875 103.027344 C 312.011719 102.519531 312.351562 101.882812 312.691406 101.328125 C 313.03125 100.734375 313.285156 100.097656 313.539062 99.503906 C 313.753906 98.992188 313.964844 98.441406 314.09375 97.933594 C 314.261719 97.339844 314.347656 96.703125 314.433594 96.105469 C 314.476562 95.597656 314.515625 95.046875 314.558594 94.410156 C 314.558594 93.730469 314.476562 93.050781 314.390625 92.496094 C 314.390625 92.074219 314.261719 91.605469 314.09375 91.054688 Z M 314.09375 91.054688 " fill-opacity="1" fill-rule="nonzero"/></g><g fill="#ffffff" fill-opacity="1"><g transform="translate(126.716688, 139.821662)"><g><path d="M 13.421875 -4.53125 L 3.953125 -4.53125 L 1.921875 0 L 0.046875 0 L 7.8125 -16.984375 L 9.578125 -16.984375 L 17.34375 0 L 15.453125 0 Z M 12.765625 -6 L 8.6875 -15.125 L 4.609375 -6 Z M 12.765625 -6 "/></g></g></g><g fill="#ffffff" fill-opacity="1"><g transform="translate(146.530597, 139.821662)"><g><path d="M 2.765625 -16.984375 L 9.6875 -16.984375 C 11.476562 -16.984375 13.0625 -16.625 14.4375 -15.90625 C 15.8125 -15.1875 16.878906 -14.179688 17.640625 -12.890625 C 18.398438 -11.609375 18.78125 -10.144531 18.78125 -8.5 C 18.78125 -6.84375 18.398438 -5.367188 17.640625 -4.078125 C 16.878906 -2.796875 15.8125 -1.796875 14.4375 -1.078125 C 13.0625 -0.359375 11.476562 0 9.6875 0 L 2.765625 0 Z M 9.578125 -1.546875 C 11.066406 -1.546875 12.367188 -1.84375 13.484375 -2.4375 C 14.609375 -3.03125 15.476562 -3.847656 16.09375 -4.890625 C 16.707031 -5.929688 17.015625 -7.132812 17.015625 -8.5 C 17.015625 -9.851562 16.707031 -11.050781 16.09375 -12.09375 C 15.476562 -13.132812 14.609375 -13.953125 13.484375 -14.546875 C 12.367188 -15.140625 11.066406 -15.4375 9.578125 -15.4375 L 4.5625 -15.4375 L 4.5625 -1.546875 Z M 9.578125 -1.546875 "/></g></g></g><g fill="#ffffff" fill-opacity="1"><g transform="translate(168.478374, 139.821662)"><g><path d="M 16.890625 -16.984375 L 9.359375 0 L 7.59375 0 L 0.078125 -16.984375 L 2.015625 -16.984375 L 8.515625 -2.234375 L 15.0625 -16.984375 Z M 16.890625 -16.984375 "/></g></g></g><g fill="#ffffff" fill-opacity="1"><g transform="translate(187.322094, 139.821662)"><g><path d="M 10.1875 0.140625 C 8.507812 0.140625 6.984375 -0.234375 5.609375 -0.984375 C 4.242188 -1.734375 3.175781 -2.765625 2.40625 -4.078125 C 1.644531 -5.390625 1.265625 -6.863281 1.265625 -8.5 C 1.265625 -10.125 1.644531 -11.59375 2.40625 -12.90625 C 3.175781 -14.21875 4.242188 -15.25 5.609375 -16 C 6.984375 -16.75 8.507812 -17.125 10.1875 -17.125 C 11.875 -17.125 13.390625 -16.753906 14.734375 -16.015625 C 16.085938 -15.273438 17.148438 -14.242188 17.921875 -12.921875 C 18.703125 -11.597656 19.09375 -10.125 19.09375 -8.5 C 19.09375 -6.863281 18.703125 -5.382812 17.921875 -4.0625 C 17.148438 -2.75 16.085938 -1.71875 14.734375 -0.96875 C 13.390625 -0.226562 11.875 0.140625 10.1875 0.140625 Z M 10.1875 -1.453125 C 11.53125 -1.453125 12.742188 -1.753906 13.828125 -2.359375 C 14.910156 -2.972656 15.757812 -3.816406 16.375 -4.890625 C 16.988281 -5.960938 17.296875 -7.164062 17.296875 -8.5 C 17.296875 -9.820312 16.988281 -11.019531 16.375 -12.09375 C 15.757812 -13.164062 14.910156 -14.003906 13.828125 -14.609375 C 12.742188 -15.222656 11.53125 -15.53125 10.1875 -15.53125 C 8.84375 -15.53125 7.625 -15.222656 6.53125 -14.609375 C 5.445312 -14.003906 4.59375 -13.164062 3.96875 -12.09375 C 3.34375 -11.019531 3.03125 -9.820312 3.03125 -8.5 C 3.03125 -7.164062 3.34375 -5.960938 3.96875 -4.890625 C 4.59375 -3.816406 5.445312 -2.972656 6.53125 -2.359375 C 7.625 -1.753906 8.84375 -1.453125 10.1875 -1.453125 Z M 10.1875 -1.453125 "/></g></g></g><g fill="#ffffff" fill-opacity="1"><g transform="translate(210.094561, 139.821662)"><g><path d="M 14.734375 -8.5 L 16.453125 -8.5 L 16.453125 -2.015625 C 15.660156 -1.316406 14.722656 -0.78125 13.640625 -0.40625 C 12.554688 -0.0390625 11.414062 0.140625 10.21875 0.140625 C 8.519531 0.140625 6.988281 -0.226562 5.625 -0.96875 C 4.269531 -1.71875 3.203125 -2.75 2.421875 -4.0625 C 1.648438 -5.382812 1.265625 -6.863281 1.265625 -8.5 C 1.265625 -10.125 1.648438 -11.597656 2.421875 -12.921875 C 3.203125 -14.242188 4.269531 -15.273438 5.625 -16.015625 C 6.988281 -16.753906 8.523438 -17.125 10.234375 -17.125 C 11.535156 -17.125 12.726562 -16.914062 13.8125 -16.5 C 14.894531 -16.09375 15.804688 -15.488281 16.546875 -14.6875 L 15.4375 -13.546875 C 14.09375 -14.867188 12.382812 -15.53125 10.3125 -15.53125 C 8.9375 -15.53125 7.691406 -15.222656 6.578125 -14.609375 C 5.472656 -14.003906 4.601562 -13.164062 3.96875 -12.09375 C 3.34375 -11.019531 3.03125 -9.820312 3.03125 -8.5 C 3.03125 -7.164062 3.34375 -5.960938 3.96875 -4.890625 C 4.601562 -3.828125 5.46875 -2.988281 6.5625 -2.375 C 7.664062 -1.757812 8.90625 -1.453125 10.28125 -1.453125 C 12.03125 -1.453125 13.515625 -1.890625 14.734375 -2.765625 Z M 14.734375 -8.5 "/></g></g></g><g fill="#ffffff" fill-opacity="1"><g transform="translate(231.266495, 139.821662)"><g><path d="M 13.421875 -4.53125 L 3.953125 -4.53125 L 1.921875 0 L 0.046875 0 L 7.8125 -16.984375 L 9.578125 -16.984375 L 17.34375 0 L 15.453125 0 Z M 12.765625 -6 L 8.6875 -15.125 L 4.609375 -6 Z M 12.765625 -6 "/></g></g></g><g fill="#ffffff" fill-opacity="1"><g transform="translate(251.080403, 139.821662)"><g><path d="M 2.765625 -16.984375 L 9.6875 -16.984375 C 11.476562 -16.984375 13.0625 -16.625 14.4375 -15.90625 C 15.8125 -15.1875 16.878906 -14.179688 17.640625 -12.890625 C 18.398438 -11.609375 18.78125 -10.144531 18.78125 -8.5 C 18.78125 -6.84375 18.398438 -5.367188 17.640625 -4.078125 C 16.878906 -2.796875 15.8125 -1.796875 14.4375 -1.078125 C 13.0625 -0.359375 11.476562 0 9.6875 0 L 2.765625 0 Z M 9.578125 -1.546875 C 11.066406 -1.546875 12.367188 -1.84375 13.484375 -2.4375 C 14.609375 -3.03125 15.476562 -3.847656 16.09375 -4.890625 C 16.707031 -5.929688 17.015625 -7.132812 17.015625 -8.5 C 17.015625 -9.851562 16.707031 -11.050781 16.09375 -12.09375 C 15.476562 -13.132812 14.609375 -13.953125 13.484375 -14.546875 C 12.367188 -15.140625 11.066406 -15.4375 9.578125 -15.4375 L 4.5625 -15.4375 L 4.5625 -1.546875 Z M 9.578125 -1.546875 "/></g></g></g><g fill="#ffffff" fill-opacity="1"><g transform="translate(273.537619, 139.821662)"><g><path d="M 10.1875 0.140625 C 8.507812 0.140625 6.984375 -0.234375 5.609375 -0.984375 C 4.242188 -1.734375 3.175781 -2.765625 2.40625 -4.078125 C 1.644531 -5.390625 1.265625 -6.863281 1.265625 -8.5 C 1.265625 -10.125 1.644531 -11.59375 2.40625 -12.90625 C 3.175781 -14.21875 4.242188 -15.25 5.609375 -16 C 6.984375 -16.75 8.507812 -17.125 10.1875 -17.125 C 11.875 -17.125 13.390625 -16.753906 14.734375 -16.015625 C 16.085938 -15.273438 17.148438 -14.242188 17.921875 -12.921875 C 18.703125 -11.597656 19.09375 -10.125 19.09375 -8.5 C 19.09375 -6.863281 18.703125 -5.382812 17.921875 -4.0625 C 17.148438 -2.75 16.085938 -1.71875 14.734375 -0.96875 C 13.390625 -0.226562 11.875 0.140625 10.1875 0.140625 Z M 10.1875 -1.453125 C 11.53125 -1.453125 12.742188 -1.753906 13.828125 -2.359375 C 14.910156 -2.972656 15.757812 -3.816406 16.375 -4.890625 C 16.988281 -5.960938 17.296875 -7.164062 17.296875 -8.5 C 17.296875 -9.820312 16.988281 -11.019531 16.375 -12.09375 C 15.757812 -13.164062 14.910156 -14.003906 13.828125 -14.609375 C 12.742188 -15.222656 11.53125 -15.53125 10.1875 -15.53125 C 8.84375 -15.53125 7.625 -15.222656 6.53125 -14.609375 C 5.445312 -14.003906 4.59375 -13.164062 3.96875 -12.09375 C 3.34375 -11.019531 3.03125 -9.820312 3.03125 -8.5 C 3.03125 -7.164062 3.34375 -5.960938 3.96875 -4.890625 C 4.59375 -3.816406 5.445312 -2.972656 6.53125 -2.359375 C 7.625 -1.753906 8.84375 -1.453125 10.1875 -1.453125 Z M 10.1875 -1.453125 "/></g></g></g><g fill="#ffffff" fill-opacity="1"><g transform="translate(296.310086, 139.821662)"><g><path d="M 7.453125 0.140625 C 6.191406 0.140625 4.984375 -0.0546875 3.828125 -0.453125 C 2.671875 -0.859375 1.773438 -1.394531 1.140625 -2.0625 L 1.84375 -3.453125 C 2.457031 -2.835938 3.273438 -2.335938 4.296875 -1.953125 C 5.316406 -1.578125 6.367188 -1.390625 7.453125 -1.390625 C 8.972656 -1.390625 10.113281 -1.664062 10.875 -2.21875 C 11.632812 -2.78125 12.015625 -3.503906 12.015625 -4.390625 C 12.015625 -5.066406 11.804688 -5.609375 11.390625 -6.015625 C 10.984375 -6.421875 10.476562 -6.734375 9.875 -6.953125 C 9.28125 -7.171875 8.445312 -7.410156 7.375 -7.671875 C 6.09375 -7.992188 5.070312 -8.300781 4.3125 -8.59375 C 3.550781 -8.894531 2.898438 -9.351562 2.359375 -9.96875 C 1.816406 -10.582031 1.546875 -11.414062 1.546875 -12.46875 C 1.546875 -13.332031 1.769531 -14.113281 2.21875 -14.8125 C 2.675781 -15.519531 3.375 -16.082031 4.3125 -16.5 C 5.257812 -16.914062 6.425781 -17.125 7.8125 -17.125 C 8.78125 -17.125 9.726562 -16.988281 10.65625 -16.71875 C 11.59375 -16.457031 12.398438 -16.09375 13.078125 -15.625 L 12.46875 -14.203125 C 11.757812 -14.671875 11 -15.019531 10.1875 -15.25 C 9.382812 -15.488281 8.59375 -15.609375 7.8125 -15.609375 C 6.320312 -15.609375 5.203125 -15.316406 4.453125 -14.734375 C 3.703125 -14.160156 3.328125 -13.421875 3.328125 -12.515625 C 3.328125 -11.835938 3.53125 -11.289062 3.9375 -10.875 C 4.351562 -10.46875 4.875 -10.15625 5.5 -9.9375 C 6.125 -9.71875 6.957031 -9.476562 8 -9.21875 C 9.25 -8.914062 10.257812 -8.613281 11.03125 -8.3125 C 11.800781 -8.007812 12.453125 -7.554688 12.984375 -6.953125 C 13.515625 -6.347656 13.78125 -5.523438 13.78125 -4.484375 C 13.78125 -3.628906 13.550781 -2.847656 13.09375 -2.140625 C 12.632812 -1.441406 11.925781 -0.882812 10.96875 -0.46875 C 10.007812 -0.0625 8.835938 0.140625 7.453125 0.140625 Z M 7.453125 0.140625 "/></g></g></g></g></g></svg>